
<!-- Generator: visioncortex VTracer 0.6.4 -->
<svg version="1.1" xmlns="http://www.w3.org/2000/svg" viewBox="0 0 400 400" preserveAspectRatio="xMidYMid meet">
<path d="M0 0 C1.369 0.005 1.369 0.005 2.766 0.009 C17.239 0.08 31.15 0.939 45.25 4.438 C46.138 4.652 47.026 4.866 47.941 5.087 C83.275 13.83 114.026 31.324 140.25 56.438 C140.749 56.909 141.248 57.381 141.762 57.867 C167.796 82.571 184.861 114.145 194.562 148.5 C194.793 149.3 195.023 150.101 195.261 150.925 C199.592 167.111 200.806 183.501 200.688 200.188 C200.683 201.557 200.683 201.557 200.678 202.953 C200.607 217.433 199.727 231.328 196.25 245.438 C196.046 246.304 195.843 247.171 195.633 248.064 C182.822 301.413 148.441 345.172 102.205 373.699 C84.627 384.348 65.276 391.873 45.25 396.438 C44.448 396.632 43.646 396.827 42.82 397.027 C15.282 403.501 -17.317 403.245 -44.75 396.438 C-46.082 396.116 -46.082 396.116 -47.441 395.788 C-81.576 387.342 -112.273 370.71 -137.75 346.438 C-138.32 345.895 -138.89 345.352 -139.478 344.792 C-148.075 336.551 -155.887 328.186 -162.75 318.438 C-163.155 317.871 -163.56 317.305 -163.978 316.722 C-177.959 297.066 -187.52 275.545 -194.062 252.375 C-194.408 251.175 -194.408 251.175 -194.761 249.95 C-199.092 233.764 -200.306 217.374 -200.188 200.688 C-200.184 199.775 -200.181 198.862 -200.178 197.922 C-200.107 183.449 -199.249 169.537 -195.75 155.438 C-195.536 154.549 -195.321 153.661 -195.101 152.747 C-186.358 117.413 -168.864 86.661 -143.75 60.438 C-143.278 59.939 -142.807 59.44 -142.321 58.926 C-117.616 32.891 -86.043 15.826 -51.688 6.125 C-50.487 5.779 -50.487 5.779 -49.262 5.427 C-33.077 1.095 -16.686 -0.119 0 0 Z " fill="#044694" transform="translate(199.75,-0.4375)"/>
<path d="M0 0 C1.574 1.32 3.137 2.653 4.688 4 C5.494 4.686 6.301 5.372 7.133 6.078 C33.414 28.982 52.01 61.834 54.688 97 C56.426 141.061 45.174 177.634 15.023 210.562 C-4.665 231.107 -30.518 244.475 -58.312 250 C-59.174 250.176 -60.035 250.352 -60.922 250.533 C-69.131 252.069 -77.224 252.442 -85.562 252.438 C-86.258 252.438 -86.954 252.438 -87.671 252.439 C-127.43 252.307 -161.17 235.067 -188.938 207.383 C-199.392 196.373 -207.105 183.665 -213.426 169.925 C-214.252 168.131 -215.108 166.35 -215.965 164.57 C-229.805 133.508 -229.189 94.591 -217.557 63.04 C-203.04 25.959 -174.955 -2.587 -138.656 -18.652 C-93.628 -37.522 -38.4 -29.939 0 0 Z " fill="#FDFDFE" transform="translate(285.3125,88)"/>
<path d="M0 0 C7.92 0 15.84 0 24 0 C24 13.2 24 26.4 24 40 C28.95 37.69 33.9 35.38 39 33 C44.577 30.951 50.23 29.392 56 28 C56.678 27.835 57.356 27.67 58.055 27.5 C91.121 19.843 129.853 25.239 159 43 C160.98 44.98 160.98 44.98 163 47 C142.54 47 122.08 47 101 47 C101 50.3 101 53.6 101 57 C112.55 57 124.1 57 136 57 C136 72.18 136 87.36 136 103 C128.08 103 120.16 103 112 103 C112 94.75 112 86.5 112 78 C88.9 78 65.8 78 42 78 C42 71.07 42 64.14 42 57 C53.55 57 65.1 57 77 57 C77 53.7 77 50.4 77 47 C59.51 47 42.02 47 24 47 C24 57.23 24 67.46 24 78 C16.08 78 8.16 78 0 78 C0 67.77 0 57.54 0 47 C-5.28 47 -10.56 47 -16 47 C-16 40.07 -16 33.14 -16 26 C-10.72 26 -5.44 26 0 26 C0 17.42 0 8.84 0 0 Z " fill="#084896" transform="translate(170,153)"/>
<path d="M0 0 C23.43 0 46.86 0 71 0 C71 6.93 71 13.86 71 21 C63.74 21 56.48 21 49 21 C48.67 23.97 48.34 26.94 48 30 C47.684 32.003 47.358 34.004 47 36 C47.701 36.473 48.403 36.946 49.125 37.434 C62.463 46.73 71.116 57.976 75 74 C75 75.32 75 76.64 75 78 C67.41 78 59.82 78 52 78 C51.01 75.03 50.02 72.06 49 69 C46.02 64.043 42.434 59.329 37 57 C36.34 57 35.68 57 35 57 C34.34 57.846 33.68 58.691 33 59.562 C25.565 68.753 13.54 74.395 2 76 C0.659 73.566 -0.673 71.129 -2 68.688 C-2.382 67.997 -2.763 67.307 -3.156 66.596 C-6 61.34 -6 61.34 -6 58 C-5.178 57.743 -4.355 57.487 -3.508 57.223 C6.217 53.887 14.626 49.194 19.5 39.75 C20.021 38.509 20.524 37.259 21 36 C21.371 35.216 21.743 34.433 22.125 33.625 C23.49 29.53 24.154 25.232 25 21 C16.75 21 8.5 21 0 21 C0 14.07 0 7.14 0 0 Z " fill="#084896" transform="translate(84,153)"/>
<path d="M0 0 C7.92 0 15.84 0 24 0 C24 5.94 24 11.88 24 18 C25.98 17.34 27.96 16.68 30 16 C43.964 11.828 56.354 14.101 70 18 C70 12.06 70 6.12 70 0 C77.92 0 85.84 0 94 0 C94 18.48 94 36.96 94 56 C90.794 54.397 88.077 52.742 85.125 50.75 C70.111 41.174 52.629 36.133 34.804 39.403 C22.692 42.173 12.204 47.144 2.461 54.898 C1 56 1 56 0 56 C0 37.52 0 19.04 0 0 Z " fill="#004593" transform="translate(212,124)"/>
<path d="M0 0 C7.92 0 15.84 0 24 0 C24 5.61 24 11.22 24 17 C48.09 17 72.18 17 97 17 C97 23.6 97 30.2 97 37 C64.99 37 32.98 37 0 37 C0 24.79 0 12.58 0 0 Z " fill="#014594" transform="translate(97,233)"/>
<path d="M0 0 C2.566 0.949 2.566 0.949 4.109 2.504 C6.105 4.484 7.683 4.447 10.441 4.762 C14.527 5.514 17.264 6.379 19.805 9.953 C21.394 14.118 20.917 18.577 20.566 22.949 C19.478 22.467 18.39 21.985 17.27 21.488 C8.798 17.812 0.875 14.612 -8.434 13.949 C-10.263 13.81 -10.263 13.81 -12.129 13.668 C-27.192 13.078 -40.38 17.63 -53.434 24.949 C-52.36 22.034 -51.655 20.171 -49.434 17.949 C-49.136 17.164 -48.838 16.379 -48.531 15.57 C-46.271 10.174 -41.666 6.413 -36.38 4.02 C-31.473 2.095 -26.461 0.527 -21.434 -1.051 C-15.071 -4.232 -6.498 -1.601 0 0 Z " fill="#30B278" transform="translate(273.43359375,149.05078125)"/>
<path d="M0 0 C6.735 3.285 12.064 8.013 15 15 C15.246 19.582 14.554 23.141 12.062 27 C8.315 30.633 4.944 30.462 -0.109 30.402 C-5.762 29.616 -9.034 26.33 -12.602 22.102 C-14.889 18.868 -16.342 15.912 -16.688 11.938 C-15.813 6.928 -13.737 4.34 -10 1 C-6.708 -0.646 -3.544 -0.64 0 0 Z " fill="#F1F2F8" transform="translate(77,67)"/>
<path d="M0 0 C7.59 0 15.18 0 23 0 C23 17.49 23 34.98 23 53 C18.813 48.813 17.68 45.436 17.562 39.562 C17.249 34.006 16.771 31.094 13 27 C11.684 25.977 10.356 24.969 9 24 C9 23.34 9 22.68 9 22 C8.362 21.879 7.724 21.758 7.066 21.633 C6.24 21.465 5.414 21.298 4.562 21.125 C3.739 20.963 2.915 20.8 2.066 20.633 C1.384 20.424 0.703 20.215 0 20 C-1.178 17.643 -1.044 16.474 -0.879 13.867 C-0.836 13.141 -0.793 12.415 -0.748 11.667 C-0.687 10.746 -0.626 9.824 -0.562 8.875 C-0.284 4.482 -0.284 4.482 0 0 Z " fill="#004893" transform="translate(282,125)"/>
<path d="M0 0 C2.938 2.062 2.938 2.062 5 5 C5.368 7.328 5.702 9.662 6 12 C6.66 12.66 7.32 13.32 8 14 C10.855 16.855 10.93 19.03 11 23 C8.961 27.616 6.693 29.01 2.062 30.812 C0.502 31.441 0.502 31.441 -1.09 32.082 C-4 33 -4 33 -8 33 C-9.675 28.732 -11.338 24.46 -13 20.188 C-13.477 18.973 -13.954 17.758 -14.445 16.506 C-14.896 15.342 -15.348 14.179 -15.812 12.98 C-16.231 11.907 -16.65 10.833 -17.082 9.727 C-18 7 -18 7 -18 4 C-11.878 1.19 -6.78 -1.034 0 0 Z " fill="#F4F5FA" transform="translate(143,25)"/>
<path d="M0 0 C7.92 0 15.84 0 24 0 C24 18.48 24 36.96 24 56 C14.991 51.496 14.991 51.496 12 48 C11.358 45.14 11.251 42.484 11.16 39.559 C11.137 36.847 11.137 36.847 9.688 34 C5.95 31.219 2.118 30.618 -2.418 29.773 C-3.27 29.518 -4.122 29.263 -5 29 C-5.495 27.515 -5.495 27.515 -6 26 C-20.57 23.196 -29.51 24.049 -43 30 C-44.33 30.489 -44.33 30.489 -45.688 30.988 C-50.443 33.069 -54.922 36.844 -57.25 41.5 C-57.498 42.325 -57.745 43.15 -58 44 C-60.67 49.436 -62.739 52.011 -68 55 C-67.094 49.402 -64.636 44.962 -62 40 C-61.644 39.319 -61.288 38.639 -60.922 37.938 C-55.949 28.781 -48.869 25.753 -39.25 22.812 C-26.231 19.33 -12.331 18.691 0 25 C1.64 25.288 3.287 25.536 4.938 25.75 C8.741 26.484 9.939 26.948 13 29.562 C15.402 33.692 16.283 37.324 17 42 C17.309 43.763 17.309 43.763 17.625 45.562 C17.749 46.367 17.873 47.171 18 48 C19.485 48.495 19.485 48.495 21 49 C21.33 49.99 21.66 50.98 22 52 C22.33 35.17 22.66 18.34 23 1 C15.41 1 7.82 1 0 1 C0 0.67 0 0.34 0 0 Z " fill="#108887" transform="translate(282,124)"/>
<path d="M0 0 C7.92 0 15.84 0 24 0 C24 5.94 24 11.88 24 18 C25.98 17.34 27.96 16.68 30 16 C43.826 11.869 56.511 13.982 70 18 C70 18.66 70 19.32 70 20 C70.99 20.186 71.98 20.371 73 20.562 C78.82 22.219 83.157 26.502 86.684 31.281 C88.319 34.66 88.58 37.449 88.812 41.188 C88.901 42.419 88.99 43.65 89.082 44.918 C89 48 89 48 87 50 C86.902 48.987 86.804 47.974 86.703 46.93 C86.553 45.578 86.402 44.226 86.25 42.875 C86.157 41.877 86.157 41.877 86.062 40.859 C85.485 35.955 84.136 32.801 81 29 C78.239 27.143 75.568 26.613 72.312 26.062 C68.96 25.448 65.928 24.661 62.75 23.438 C51.904 19.714 41.787 20.997 31 24 C29.724 24.268 28.448 24.536 27.133 24.812 C19.687 26.415 14.551 28.179 9.613 34.195 C7.883 36.131 6.373 36.997 4 38 C5.409 33.657 7.476 31.091 10.688 27.875 C11.516 27.027 12.345 26.179 13.199 25.305 C16 23 16 23 23 20 C23 13.73 23 7.46 23 1 C15.41 1 7.82 1 0 1 C0 0.67 0 0.34 0 0 Z " fill="#006A8F" transform="translate(212,124)"/>
<path d="M0 0 C1.778 2.339 1.778 2.339 3.723 5.582 C4.242 6.437 4.242 6.437 4.772 7.309 C5.879 9.138 6.971 10.975 8.062 12.812 C8.802 14.04 9.542 15.268 10.283 16.494 C11.646 18.75 13.001 21.01 14.352 23.273 C15.523 25.21 16.744 27.117 18 29 C17.625 31.188 17.625 31.188 17 33 C15.02 33.495 15.02 33.495 13 34 C11.02 30.7 9.04 27.4 7 24 C6.01 24.99 5.02 25.98 4 27 C1.301 26.855 1.301 26.855 -1.688 26.188 C-2.681 25.975 -3.675 25.762 -4.699 25.543 C-5.458 25.364 -6.218 25.185 -7 25 C-7.124 26.258 -7.248 27.516 -7.375 28.812 C-7.699 32.103 -8.066 33.099 -10 36 C-11.32 36 -12.64 36 -14 36 C-13.836 35.172 -13.673 34.345 -13.504 33.492 C-12.954 29.678 -12.889 25.966 -12.938 22.125 C-12.942 21.437 -12.947 20.748 -12.951 20.039 C-12.963 18.359 -12.981 16.68 -13 15 C-15.525 15 -16.889 15.846 -19.125 17 C-19.849 17.371 -20.574 17.743 -21.32 18.125 C-21.875 18.414 -22.429 18.702 -23 19 C-23.66 17.68 -24.32 16.36 -25 15 C-23.35 14.34 -21.7 13.68 -20 13 C-20.33 11.35 -20.66 9.7 -21 8 C-16.375 5.875 -16.375 5.875 -13 7 C-10.857 6.611 -10.857 6.611 -9 6 C-6.96 10.93 -5.593 14.58 -6 20 C-2.37 20.33 1.26 20.66 5 21 C4.374 19.964 3.747 18.927 3.102 17.859 C2.276 16.49 1.45 15.12 0.625 13.75 C0.212 13.068 -0.2 12.386 -0.625 11.684 C-1.025 11.02 -1.424 10.356 -1.836 9.672 C-2.203 9.064 -2.569 8.457 -2.947 7.831 C-4.045 5.922 -5.034 3.978 -6 2 C-3 0 -3 0 0 0 Z " fill="#F6F7FA" transform="translate(293,321)"/>
<path d="M0 0 C1.32 0.66 2.64 1.32 4 2 C0.197 7.192 -3.762 12.156 -8 17 C-6.547 20.829 -4.571 22.121 -1 24 C0.815 22.044 2.627 20.086 4.438 18.125 C4.954 17.569 5.47 17.014 6.002 16.441 C8.821 13.453 8.821 13.453 11 10 C12.32 10.66 13.64 11.32 15 12 C13.502 15.112 11.801 18.053 10 21 C10.99 21.99 11.98 22.98 13 24 C15.992 22.636 18.29 21.051 20.75 18.875 C21.364 18.336 21.977 17.797 22.609 17.242 C23.068 16.832 23.527 16.422 24 16 C24.66 17.32 25.32 18.64 26 20 C21.138 25.666 16.108 31.162 11.001 36.606 C8.176 39.566 8.176 39.566 6 43 C4.68 42.34 3.36 41.68 2 41 C3.668 37.059 6.227 34.211 9 31 C8.34 29.68 7.68 28.36 7 27 C5.68 27 4.36 27 3 27 C0.731 29.419 0.731 29.419 -1 32 C-4.678 30.435 -7.212 28.146 -10.125 25.438 C-13.315 22.363 -13.315 22.363 -17 20 C-15.592 16.84 -13.903 14.61 -11.523 12.109 C-10.853 11.4 -10.183 10.691 -9.492 9.961 C-8.794 9.231 -8.095 8.502 -7.375 7.75 C-6.315 6.632 -6.315 6.632 -5.234 5.492 C-3.494 3.657 -1.749 1.827 0 0 Z " fill="#F4F4F9" transform="translate(321,293)"/>
<path d="M0 0 C1.98 0 3.96 0 6 0 C6 1.65 6 3.3 6 5 C7.65 5 9.3 5 11 5 C11 3.35 11 1.7 11 0 C12.65 0 14.3 0 16 0 C16 5.94 16 11.88 16 18 C14.35 18 12.7 18 11 18 C11 17.34 11 16.68 11 16 C9.35 16 7.7 16 6 16 C6 16.99 6 17.98 6 19 C-0.27 19 -6.54 19 -13 19 C-13 13.06 -13 7.12 -13 1 C-11.02 1 -9.04 1 -7 1 C-7 2.65 -7 4.3 -7 6 C-4.69 6 -2.38 6 0 6 C0 4.02 0 2.04 0 0 Z " fill="#E8EBF4" transform="translate(198,351)"/>
<path d="M0 0 C3.95 1.502 5.434 3.715 7.672 7.227 C8.668 8.773 8.668 8.773 9.684 10.352 C10.366 11.432 11.047 12.512 11.75 13.625 C12.447 14.713 13.145 15.801 13.863 16.922 C15.584 19.609 17.296 22.302 19 25 C17.634 26.502 17.634 26.502 16 28 C10.991 27.936 6.474 24.784 2.188 22.438 C1.399 22.013 0.611 21.588 -0.201 21.15 C-2.137 20.106 -4.07 19.056 -6 18 C-5.529 18.736 -5.059 19.472 -4.574 20.23 C-3.952 21.206 -3.329 22.182 -2.688 23.188 C-2.073 24.15 -1.458 25.113 -0.824 26.105 C-0.222 27.061 0.38 28.016 1 29 C1.592 29.883 2.183 30.766 2.793 31.676 C3.191 32.443 3.59 33.21 4 34 C3.67 34.99 3.34 35.98 3 37 C1.515 37.495 1.515 37.495 0 38 C-5.84 29.781 -11.431 21.404 -17 13 C-16.34 12.01 -15.68 11.02 -15 10 C-9.435 10.56 -5.073 12.635 -0.125 15.062 C0.659 15.44 1.442 15.817 2.25 16.205 C4.17 17.13 6.085 18.064 8 19 C4.7 14.05 1.4 9.1 -2 4 C-1.34 2.68 -0.68 1.36 0 0 Z " fill="#F4F5F9" transform="translate(105,39)"/>
<path d="M0 0 C1.32 0.99 2.64 1.98 4 3 C3.312 6.715 1.693 9.587 -0.16 12.859 C-0.789 13.974 -1.417 15.089 -2.064 16.238 C-2.73 17.409 -3.396 18.579 -4.062 19.75 C-4.733 20.936 -5.403 22.122 -6.072 23.309 C-7.711 26.208 -9.353 29.105 -11 32 C-11.99 32 -12.98 32 -14 32 C-14.688 29.812 -14.688 29.812 -15 27 C-14.484 26.154 -13.969 25.309 -13.438 24.438 C-12.963 23.633 -12.489 22.829 -12 22 C-12.952 18.51 -15.404 16.423 -18 14 C-22.455 15.485 -22.455 15.485 -27 17 C-27.99 16.01 -28.98 15.02 -30 14 C-30 13.34 -30 12.68 -30 12 C-28.69 11.508 -28.69 11.508 -27.354 11.006 C-24.123 9.791 -20.894 8.574 -17.665 7.355 C-16.265 6.828 -14.866 6.301 -13.466 5.775 C-11.457 5.021 -9.449 4.263 -7.441 3.504 C-6.232 3.048 -5.022 2.593 -3.776 2.123 C-1.134 1.264 -1.134 1.264 0 0 Z " fill="#F3F4F9" transform="translate(334,72)"/>
<path d="M0 0 C1.98 0 3.96 0 6 0 C6 3.96 6 7.92 6 12 C6.713 11.206 7.426 10.412 8.16 9.594 C9.127 8.562 10.094 7.53 11.062 6.5 C11.761 5.713 11.761 5.713 12.475 4.91 C15.33 1.919 16.693 1.027 20.871 0.656 C22.42 0.826 22.42 0.826 24 1 C24 1.66 24 2.32 24 3 C22.426 4.551 22.426 4.551 20.312 6.312 C17.047 9.085 13.981 11.926 11 15 C12.728 19.023 15.431 22.281 18.125 25.688 C23 31.872 23 31.872 23 33 C18.784 33.966 18.784 33.966 16 33 C12.9 29.61 10.506 25.837 8 22 C7.34 21.34 6.68 20.68 6 20 C4.337 21.663 4.64 23.783 4.438 26.062 C4.312 27.441 4.312 27.441 4.184 28.848 C4.123 29.558 4.062 30.268 4 31 C2.35 31 0.7 31 -1 31 C-0.67 20.77 -0.34 10.54 0 0 Z " fill="#F0F1F7" transform="translate(205,14)"/>
<path d="M0 0 C4.364 23.458 4.364 23.458 0.102 29.844 C-3.026 33.053 -4.989 33.222 -9.375 33.375 C-14.605 33.286 -14.605 33.286 -17.5 31.188 C-21.687 22.29 -22.8 12.674 -24 3 C-22.02 3 -20.04 3 -18 3 C-17.807 4.146 -17.613 5.292 -17.414 6.473 C-17.151 8.003 -16.888 9.533 -16.625 11.062 C-16.436 12.191 -16.436 12.191 -16.242 13.342 C-15.326 21.231 -15.326 21.231 -12 28 C-9.329 28.141 -6.676 28.042 -4 28 C-3.651 18.844 -4.73 10.04 -6 1 C-4 0 -4 0 0 0 Z " fill="#EFF1F7" transform="translate(186,14)"/>
<path d="M0 0 C4.07 1.566 6.97 3.053 9 7 C9.188 10.25 9.188 10.25 9 13 C6.562 12.312 6.562 12.312 4 11 C3.188 8.375 3.188 8.375 3 6 C-1.615 4.958 -1.615 4.958 -6 6 C-5.916 8.843 -5.47 10.528 -3.445 12.562 C-2.211 13.586 -0.96 14.59 0.309 15.57 C3.153 17.974 3.965 19.686 4.375 23.375 C4 27 4 27 2.625 29.938 C-0.837 32.658 -3.21 32.646 -7.523 32.43 C-11.093 31.81 -13.298 30.364 -16 28 C-18.429 24.356 -18.162 22.288 -18 18 C-16.35 18.33 -14.7 18.66 -13 19 C-12.732 19.949 -12.464 20.898 -12.188 21.875 C-11.25 25.253 -11.25 25.253 -8 27 C-4.875 27.167 -4.875 27.167 -2 27 C-1.629 24.179 -1.629 24.179 -2 21 C-3.89 18.638 -3.89 18.638 -6.438 16.75 C-11.812 12.41 -11.812 12.41 -12.375 8.188 C-12 5 -12 5 -9.938 2.125 C-6.237 -0.552 -4.485 -0.629 0 0 Z " fill="#F3F4F9" transform="translate(274,28)"/>
<path d="M0 0 C1.32 0.33 2.64 0.66 4 1 C3.341 4.57 1.838 7.177 -0.062 10.25 C-0.61 11.142 -1.158 12.034 -1.723 12.953 C-2.355 13.966 -2.355 13.966 -3 15 C-0.094 16.257 1.796 17 5 17 C6.702 14.773 6.702 14.773 8.188 12 C8.982 10.608 8.982 10.608 9.793 9.188 C10.191 8.466 10.59 7.744 11 7 C12.32 7.33 13.64 7.66 15 8 C14.342 11.297 13.106 13.841 11.438 16.75 C10.982 17.549 10.527 18.348 10.059 19.172 C9.709 19.775 9.36 20.378 9 21 C11.64 22.65 14.28 24.3 17 26 C17.248 25.319 17.495 24.639 17.75 23.938 C19.242 20.431 21.068 17.284 23 14 C24.32 14.33 25.64 14.66 27 15 C26.358 19.115 24.13 22.304 21.938 25.75 C21.56 26.352 21.183 26.954 20.795 27.574 C19.868 29.052 18.935 30.527 18 32 C14.358 31.337 11.713 29.773 8.578 27.84 C7.553 27.211 6.529 26.583 5.473 25.936 C4.409 25.276 3.346 24.617 2.25 23.938 C1.171 23.274 0.092 22.611 -1.02 21.928 C-3.683 20.29 -6.343 18.647 -9 17 C-7.444 12.98 -5.577 9.399 -3.375 5.688 C-2.743 4.619 -2.112 3.55 -1.461 2.449 C-0.979 1.641 -0.497 0.833 0 0 Z " fill="#F3F3F9" transform="translate(46,94)"/>
<path d="M0 0 C2.438 0.688 2.438 0.688 5 2 C5.153 2.798 5.307 3.596 5.465 4.418 C5.748 7.247 5.748 7.247 8.504 8.801 C9.513 9.3 10.523 9.799 11.562 10.312 C13.08 11.08 13.08 11.08 14.629 11.863 C15.411 12.238 16.194 12.614 17 13 C17 12.34 17 11.68 17 11 C19.438 11.375 19.438 11.375 22 12 C22.33 12.66 22.66 13.32 23 14 C21.707 16.602 21.707 16.602 19.812 19.625 C19.2 20.628 18.588 21.631 17.957 22.664 C17.311 23.435 16.665 24.206 16 25 C11.908 25 11.011 24.701 7.707 22.664 C6.912 22.177 6.118 21.69 5.299 21.188 C4.478 20.672 3.658 20.156 2.812 19.625 C1.98 19.117 1.148 18.609 0.291 18.086 C-5.863 14.274 -5.863 14.274 -7 12 C-5.566 9.18 -5.566 9.18 -3.562 5.875 C-2.574 4.231 -2.574 4.231 -1.566 2.555 C-1.049 1.712 -0.533 0.869 0 0 Z " fill="#F5F5FA" transform="translate(108,322)"/>
<path d="M0 0 C3.245 2.972 4.252 5.895 5.688 10.062 C5.912 10.7 6.137 11.337 6.369 11.994 C8 16.698 8 16.698 8 19 C6.68 19.33 5.36 19.66 4 20 C2.35 16.04 0.7 12.08 -1 8 C-3.64 8.33 -6.28 8.66 -9 9 C-8.7 9.664 -8.399 10.328 -8.09 11.012 C-7.71 11.895 -7.329 12.778 -6.938 13.688 C-6.555 14.558 -6.172 15.428 -5.777 16.324 C-4.906 19.322 -5.15 21.033 -6 24 C-6.99 24 -7.98 24 -9 24 C-10.32 20.04 -11.64 16.08 -13 12 C-15.97 12.66 -18.94 13.32 -22 14 C-21.7 14.748 -21.399 15.495 -21.09 16.266 C-20.519 17.743 -20.519 17.743 -19.938 19.25 C-19.555 20.225 -19.172 21.199 -18.777 22.203 C-17.989 25.04 -17.976 26.294 -19 29 C-19.99 29 -20.98 29 -22 29 C-23.98 23.06 -25.96 17.12 -28 11 C-18.699 7.25 -9.35 3.626 0 0 Z " fill="#F2F3F8" transform="translate(370,126)"/>
<path d="M0 0 C8.468 1.514 16.713 3.724 25 6 C25 7.32 25 8.64 25 10 C18.043 9.43 11.686 7.987 5 6 C5 6.66 5 7.32 5 8 C6.392 8.155 6.392 8.155 7.812 8.312 C12.995 9.038 17.98 10.557 23 12 C22.67 13.32 22.34 14.64 22 16 C15.425 15.38 9.333 13.851 3 12 C3 12.66 3 13.32 3 14 C4.392 14.155 4.392 14.155 5.812 14.312 C10.995 15.038 15.98 16.557 21 18 C21 19.32 21 20.64 21 22 C15.732 21.342 10.699 20.267 5.562 18.938 C4.831 18.751 4.099 18.565 3.346 18.373 C1.563 17.919 -0.219 17.46 -2 17 C-3.186 12.767 -2.719 9.896 -1.562 5.688 C-1.275 4.619 -0.988 3.55 -0.691 2.449 C-0.463 1.641 -0.235 0.833 0 0 Z " fill="#F2F3F8" transform="translate(145,343)"/>
<path d="M0 0 C7.92 0 15.84 0 24 0 C24 3.63 24 7.26 24 11 C18.06 11 12.12 11 6 11 C6 11.66 6 12.32 6 13 C11.94 13 17.88 13 24 13 C24 14.32 24 15.64 24 17 C16.08 17 8.16 17 0 17 C0 13.7 0 10.4 0 7 C5.94 7 11.88 7 18 7 C18 6.34 18 5.68 18 5 C12.06 5 6.12 5 0 5 C0 3.35 0 1.7 0 0 Z " fill="#F0F1F8" transform="translate(190,371)"/>
<path d="M0 0 C4.841 2.349 9.391 5.169 14 7.938 C15.354 8.745 15.354 8.745 16.734 9.568 C18.041 10.352 18.041 10.352 19.375 11.152 C20.562 11.864 20.562 11.864 21.773 12.59 C23.939 13.961 25.972 15.433 28 17 C27.34 18.32 26.68 19.64 26 21 C25.385 20.651 24.77 20.301 24.137 19.941 C23.328 19.486 22.52 19.031 21.688 18.562 C20.887 18.11 20.086 17.658 19.262 17.191 C16.938 15.889 16.938 15.889 14 15 C13.67 15.66 13.34 16.32 13 17 C13.763 17.289 14.526 17.577 15.312 17.875 C18 19 18 19 21 21 C19.844 24.912 18.645 27.875 16 31 C14.35 30.34 12.7 29.68 11 29 C11.495 28.103 11.495 28.103 12 27.188 C13.208 24.946 13.208 24.946 13 22 C11.507 20.651 11.507 20.651 9.5 19.52 C8.778 19.078 8.056 18.637 7.312 18.182 C6.549 17.73 5.786 17.278 5 16.812 C3.855 16.117 3.855 16.117 2.688 15.408 C0.797 14.262 -1.098 13.127 -3 12 C-2.67 10.68 -2.34 9.36 -2 8 C2.194 8.671 5.403 10.856 9 13 C9 12.01 9 11.02 9 10 C8.299 9.752 7.597 9.505 6.875 9.25 C3.63 7.839 0.897 6.021 -2 4 C-1.34 2.68 -0.68 1.36 0 0 Z " fill="#F3F4F9" transform="translate(96,335)"/>
<path d="M0 0 C4.718 2.597 8.961 5.902 11 11 C11.524 14.666 11.445 16.306 9.438 19.438 C7 21 7 21 3.75 21.188 C-1.751 19.446 -6.233 15.976 -9.211 10.961 C-10.335 8.168 -10.317 5.977 -10 3 C-7.703 -1.054 -4.239 -0.625 0 0 Z " fill="#094996" transform="translate(76,72)"/>
<path d="M0 0 C-0.021 1.025 -0.041 2.05 -0.062 3.105 C-0.285 10.632 -0.285 10.632 2.848 17.109 C4.871 18.322 6.763 19.261 9 20 C8.67 21.32 8.34 22.64 8 24 C4.194 23.328 0.648 22.273 -3 21 C-5.475 24.96 -5.475 24.96 -8 29 C-9.65 28.67 -11.3 28.34 -13 28 C-12.578 27.071 -12.157 26.141 -11.723 25.184 C-11.169 23.935 -10.615 22.686 -10.062 21.438 C-9.785 20.828 -9.507 20.219 -9.221 19.592 C-7.364 15.364 -6.467 11.597 -6 7 C-11.445 7.99 -11.445 7.99 -17 9 C-17.33 7.68 -17.66 6.36 -18 5 C-15.564 4.161 -13.127 3.329 -10.688 2.5 C-9.652 2.142 -9.652 2.142 -8.596 1.777 C-5.611 0.768 -3.173 0 0 0 Z " fill="#F2F3F9" transform="translate(245,345)"/>
<path d="M0 0 C0.66 0 1.32 0 2 0 C6 7 10 14 14 21 C12.02 21.99 12.02 21.99 10 23 C6 17.25 6 17.25 6 15 C-1.59 19.62 -9.18 24.24 -17 29 C-17.99 28.34 -18.98 27.68 -20 27 C-19.661 24.213 -19.284 23.226 -17.051 21.444 C-16.218 20.963 -15.385 20.481 -14.527 19.984 C-13.628 19.456 -12.729 18.927 -11.803 18.383 C-10.857 17.844 -9.912 17.305 -8.938 16.75 C-7.988 16.196 -7.039 15.641 -6.061 15.07 C-3.713 13.702 -1.36 12.346 1 11 C0.685 10.22 0.371 9.44 0.047 8.637 C-1.687 4.27 -1.687 4.27 -2 2 C-1.34 1.34 -0.68 0.68 0 0 Z " fill="#F2F3F8" transform="translate(351,91)"/>
<path d="M0 0 C2.804 1.337 5.339 2.832 7.891 4.602 C8.954 5.336 8.954 5.336 10.039 6.086 C10.769 6.594 11.498 7.102 12.25 7.625 C13.368 8.398 13.368 8.398 14.508 9.188 C16.34 10.456 18.171 11.727 20 13 C19.67 14.32 19.34 15.64 19 17 C15.505 16.353 13.003 14.858 10 13 C9.622 13.53 9.244 14.059 8.854 14.605 C7.135 17.009 5.411 19.411 3.688 21.812 C3.093 22.646 2.498 23.479 1.885 24.338 C1.019 25.542 1.019 25.542 0.137 26.77 C-0.392 27.508 -0.921 28.246 -1.466 29.007 C-2.87 30.831 -4.331 32.419 -6 34 C-6.99 33.34 -7.98 32.68 -9 32 C-8.378 28.596 -7.1 26.446 -5.059 23.672 C-4.475 22.873 -3.892 22.073 -3.291 21.25 C-2.679 20.425 -2.068 19.6 -1.438 18.75 C-0.822 17.91 -0.206 17.069 0.428 16.203 C1.946 14.131 3.471 12.064 5 10 C4.216 9.216 3.433 8.432 2.625 7.625 C1.083 6.083 -0.458 4.542 -2 3 C-1.34 2.01 -0.68 1.02 0 0 Z " fill="#F3F3F9" transform="translate(299,42)"/>
<path d="M0 0 C1.32 3.3 2.64 6.6 4 10 C4.99 10 5.98 10 7 10 C7.33 11.65 7.66 13.3 8 15 C7.01 15 6.02 15 5 15 C6.285 20.337 7.754 25.567 9.414 30.801 C10 33 10 33 10 36 C7.03 36.495 7.03 36.495 4 37 C3.804 36.325 3.607 35.651 3.405 34.956 C2.5 31.845 1.594 28.735 0.688 25.625 C0.379 24.564 0.07 23.503 -0.248 22.41 C-1.162 19.273 -2.08 16.136 -3 13 C-3.285 12.026 -3.571 11.053 -3.865 10.05 C-4.13 9.154 -4.395 8.259 -4.668 7.336 C-4.902 6.545 -5.135 5.754 -5.376 4.939 C-5.962 2.949 -5.962 2.949 -7 1 C-5 0 -5 0 0 0 Z " fill="#F1F2F8" transform="translate(255,342)"/>
<path d="M0 0 C4.514 3.669 8.502 7.335 12 12 C12 12.66 12 13.32 12 14 C5.375 17 5.375 17 2 17 C2 20.63 2 24.26 2 28 C0.35 28 -1.3 28 -3 28 C-3 24.37 -3 20.74 -3 17 C-6.63 16.67 -10.26 16.34 -14 16 C-14.33 14.35 -14.66 12.7 -15 11 C-9.06 11 -3.12 11 3 11 C0.525 7.535 0.525 7.535 -2 4 C-1.34 2.68 -0.68 1.36 0 0 Z " fill="#F3F4F9" transform="translate(76,290)"/>
<path d="M0 0 C7.92 0 15.84 0 24 0 C24 18.48 24 36.96 24 56 C14.991 51.496 14.991 51.496 12 48 C11.357 45.133 11.251 42.5 11.199 39.566 C10.926 36.044 9.574 34.34 7 32 C6.34 31.67 5.68 31.34 5 31 C5 30.01 5 29.02 5 28 C4.01 27.67 3.02 27.34 2 27 C2 26.67 2 26.34 2 26 C9.128 26.242 9.128 26.242 12.875 29.5 C15.6 33.304 16.303 37.451 17 42 C17.206 43.176 17.413 44.351 17.625 45.562 C17.749 46.367 17.873 47.171 18 48 C19.485 48.495 19.485 48.495 21 49 C21.33 49.99 21.66 50.98 22 52 C22.33 35.17 22.66 18.34 23 1 C15.41 1 7.82 1 0 1 C0 0.67 0 0.34 0 0 Z " fill="#5484AE" transform="translate(282,124)"/>
<path d="M0 0 C1.778 2.339 1.778 2.339 3.723 5.582 C4.069 6.152 4.415 6.722 4.772 7.309 C5.879 9.138 6.971 10.975 8.062 12.812 C8.802 14.04 9.542 15.268 10.283 16.494 C11.646 18.75 13.001 21.01 14.352 23.273 C15.523 25.21 16.744 27.117 18 29 C17.625 31.188 17.625 31.188 17 33 C15.02 33.495 15.02 33.495 13 34 C11.02 30.7 9.04 27.4 7 24 C6.34 24.33 5.68 24.66 5 25 C4 22 4 22 4 19 C2.575 16.605 1.119 14.305 -0.438 12 C-4.88 5.36 -4.88 5.36 -6 2 C-3 0 -3 0 0 0 Z " fill="#F2F3F8" transform="translate(293,321)"/>
<path d="M0 0 C3.211 1.097 6.418 2.204 9.625 3.312 C10.98 3.776 10.98 3.776 12.363 4.248 C25.112 8.668 25.112 8.668 28 13 C27.806 16.563 27.383 19.253 25.75 22.438 C24 24 24 24 21.312 24.25 C20.549 24.167 19.786 24.085 19 24 C19.375 21.562 19.375 21.562 20 19 C20.66 18.67 21.32 18.34 22 18 C22 16.68 22 15.36 22 14 C18.94 12.848 15.876 11.705 12.812 10.562 C11.948 10.237 11.084 9.912 10.193 9.576 C9.352 9.264 8.511 8.951 7.645 8.629 C6.875 8.341 6.105 8.053 5.312 7.756 C2.893 6.965 0.503 6.451 -2 6 C-1.34 4.02 -0.68 2.04 0 0 Z " fill="#EFF1F7" transform="translate(28,128)"/>
<path d="M0 0 C7.92 0 15.84 0 24 0 C24 5.94 24 11.88 24 18 C25.98 17.34 27.96 16.68 30 16 C35.692 14.362 40.832 13.614 46.75 13.625 C47.441 13.624 48.132 13.622 48.844 13.621 C53.729 13.729 53.729 13.729 56 16 C54.532 16.073 54.532 16.073 53.035 16.148 C40.737 16.85 32.433 18.208 22 25 C20.964 25.605 20.964 25.605 19.906 26.223 C14.334 29.484 9.71 33.606 5 38 C5 33.075 8.692 30.404 12 27 C15.526 23.657 18.624 21.188 23 19 C23 13.06 23 7.12 23 1 C15.41 1 7.82 1 0 1 C0 0.67 0 0.34 0 0 Z " fill="#1F609B" transform="translate(212,124)"/>
<path d="M0 0 C1.32 0.99 2.64 1.98 4 3 C0.324 11.191 -8.657 18.104 -16 23 C-17.5 21.688 -17.5 21.688 -19 20 C-19 19.01 -19 18.02 -19 17 C-17.029 15.104 -14.91 13.492 -12.75 11.816 C-10.537 9.94 -10.537 9.94 -11 6 C-11 4.68 -11 3.36 -11 2 C-10.01 1.67 -9.02 1.34 -8 1 C-7.34 1.99 -6.68 2.98 -6 4 C-3.532 2.848 -1.952 1.952 0 0 Z " fill="#F5F6FA" transform="translate(93,308)"/>
<path d="M0 0 C0 0.66 0 1.32 0 2 C-1.437 2.027 -2.875 2.046 -4.312 2.062 C-5.513 2.08 -5.513 2.08 -6.738 2.098 C-9 2 -9 2 -12 1 C-21.59 0.243 -30.478 1.014 -38.051 7.281 C-38.694 7.848 -39.337 8.416 -40 9 C-40.715 9.608 -41.431 10.217 -42.168 10.844 C-47.847 15.362 -47.847 15.362 -52 21.125 C-53 23 -53 23 -56 24 C-54.926 21.085 -54.222 19.222 -52 17 C-51.702 16.215 -51.404 15.43 -51.098 14.621 C-48.838 9.225 -44.233 5.463 -38.946 3.07 C-34.039 1.146 -29.027 -0.423 -24 -2 C-16.847 -5.576 -7.147 -2.063 0 0 Z " fill="#21A37C" transform="translate(276,150)"/>
<path d="M0 0 C1.32 0.99 2.64 1.98 4 3 C2.667 5.667 1.333 8.333 0 11 C0.957 12.013 0.957 12.013 1.934 13.047 C2.76 13.939 3.586 14.831 4.438 15.75 C5.261 16.632 6.085 17.513 6.934 18.422 C8.831 20.789 9.621 22.051 10 25 C8.68 25.33 7.36 25.66 6 26 C4.057 23.942 2.121 21.879 0.188 19.812 C-0.36 19.234 -0.907 18.656 -1.471 18.061 C-2.002 17.49 -2.534 16.92 -3.082 16.332 C-3.569 15.814 -4.056 15.295 -4.558 14.761 C-6 13 -6 13 -9 8 C-6.03 5.36 -3.06 2.72 0 0 Z " fill="#F1F2F8" transform="translate(63,311)"/>
<path d="M0 0 C8.735 2.135 17.413 4.317 26 7 C25.01 10.63 24.02 14.26 23 18 C21.02 17.67 19.04 17.34 17 17 C17.523 14.237 18.109 11.674 19 9 C18.093 8.897 17.185 8.794 16.25 8.688 C10.77 7.898 5.259 6.734 0 5 C-0.33 4.34 -0.66 3.68 -1 3 C-0.67 2.01 -0.34 1.02 0 0 Z " fill="#F1F2F8" transform="translate(138,367)"/>
<path d="M0 0 C0.969 0.242 1.939 0.485 2.938 0.734 C3.898 0.975 3.898 0.975 4.879 1.22 C6.303 1.576 7.728 1.932 9.152 2.288 C10.253 2.563 10.253 2.563 11.375 2.844 C14.458 3.615 17.542 4.385 20.625 5.156 C21.725 5.431 21.725 5.431 22.848 5.712 C24.272 6.068 25.697 6.424 27.121 6.78 C28.082 7.021 28.082 7.021 29.062 7.266 C30.032 7.508 31.001 7.75 32 8 C31.67 9.65 31.34 11.3 31 13 C23.88 11.677 16.91 10.016 9.938 8.062 C8.989 7.81 8.041 7.558 7.064 7.299 C6.165 7.047 5.266 6.795 4.34 6.535 C3.123 6.201 3.123 6.201 1.883 5.86 C1.261 5.576 0.64 5.292 0 5 C-0.33 4.01 -0.66 3.02 -1 2 C-0.67 1.34 -0.34 0.68 0 0 Z " fill="#EBEDF5" transform="translate(137,360)"/>
<path d="M0 0 C2.64 0.33 5.28 0.66 8 1 C8 1.66 8 2.32 8 3 C8.99 3.186 9.98 3.371 11 3.562 C16.82 5.219 21.157 9.502 24.684 14.281 C26.319 17.66 26.58 20.449 26.812 24.188 C26.901 25.419 26.99 26.65 27.082 27.918 C27 31 27 31 25 33 C24.902 31.987 24.804 30.974 24.703 29.93 C24.553 28.578 24.402 27.226 24.25 25.875 C24.188 25.21 24.126 24.545 24.062 23.859 C23.485 18.955 22.136 15.801 19 12 C15.466 9.594 11.492 9.303 7.34 8.66 C4.685 7.911 3.799 7.033 2 5 C1.01 4.34 0.02 3.68 -1 3 C-0.67 2.01 -0.34 1.02 0 0 Z " fill="#01688F" transform="translate(274,141)"/>
<path d="M0 0 C1.938 1.125 1.938 1.125 3 3 C3.39 6.118 3.504 8.11 1.938 10.875 C-1.141 12.662 -3.529 12.434 -7 12 C-9.421 9.892 -9.913 8.597 -10.375 5.438 C-10 3 -10 3 -8.938 1.188 C-5.906 -0.67 -3.466 -0.371 0 0 Z " fill="#FAFAFC" transform="translate(373,194)"/>
<path d="M0 0 C2.438 1.625 2.438 1.625 4 4 C3.938 7.125 3.938 7.125 3 10 C-0.47 12.314 -1.918 12.51 -6 12 C-8.352 9.883 -8.918 8.56 -9.375 5.438 C-9 3 -9 3 -7.875 1.188 C-5.087 -0.578 -3.233 -0.462 0 0 Z " fill="#F5F5FA" transform="translate(33,194)"/>
<path d="M0 0 C0.99 0.33 1.98 0.66 3 1 C2.34 1.66 1.68 2.32 1 3 C0.01 3 -0.98 3 -2 3 C-2.66 4.32 -3.32 5.64 -4 7 C-4.66 7 -5.32 7 -6 7 C-7.361 9.675 -8.619 12.372 -9.812 15.125 C-12.037 20.171 -14.498 25.087 -17 30 C-17.33 30 -17.66 30 -18 30 C-18.729 22.778 -18.29 17.939 -13.852 12.07 C-10.838 8.701 -7.558 5.78 -4 3 C-3.322 2.42 -2.644 1.84 -1.945 1.242 C-1.303 0.832 -0.661 0.422 0 0 Z " fill="#006990" transform="translate(230,150)"/>
<path d="M0 0 C0.66 0.33 1.32 0.66 2 1 C1.06 1.961 1.06 1.961 0.102 2.941 C-4.518 7.831 -7.605 11.279 -9 18 C-11.265 23.373 -13.957 26.135 -19 29 C-18.094 23.402 -15.636 18.962 -13 14 C-12.644 13.319 -12.288 12.639 -11.922 11.938 C-8.94 6.446 -5.619 2.809 0 0 Z " fill="#067A8B" transform="translate(233,150)"/>
<path d="M0 0 C0.66 0.66 1.32 1.32 2 2 C1.938 4.438 1.938 4.438 1 7 C-1.848 9.155 -4.495 10.351 -8 11 C-11 4.375 -11 4.375 -11 1 C-6.915 -0.615 -4.235 -1.412 0 0 Z " fill="#124D99" transform="translate(147,42)"/>
<path d="M0 0 C0.33 1.98 0.66 3.96 1 6 C-2.96 7.98 -2.96 7.98 -7 10 C-9.503 7.062 -10.469 4.821 -11 1 C-6.878 -0.63 -4.293 -1.263 0 0 Z " fill="#18509B" transform="translate(142,30)"/>
<path d="M0 0 C0.699 -0.005 1.397 -0.01 2.117 -0.016 C7.116 0.053 7.116 0.053 9.375 2.312 C8.397 2.361 7.418 2.41 6.41 2.461 C-7.642 3.242 -7.642 3.242 -20.625 8.312 C-21.285 7.653 -21.945 6.993 -22.625 6.312 C-21.965 5.653 -21.305 4.993 -20.625 4.312 C-20.625 3.982 -20.625 3.653 -20.625 3.312 C-13.728 1.118 -7.212 0.013 0 0 Z " fill="#2C709F" transform="translate(258.625,137.6875)"/>
<path d="M0 0 C0.66 0 1.32 0 2 0 C4.616 3.558 5.494 6.645 6 11 C6.99 11.33 7.98 11.66 9 12 C10.188 15.062 10.188 15.062 11 18 C9.636 17.4 8.313 16.707 7 16 C6.398 15.716 5.796 15.433 5.176 15.141 C2.999 13.922 1.565 12.957 0 11 C-0.605 7.265 -0.414 3.75 0 0 Z " fill="#178C88" transform="translate(294,161)"/>
<path d="M0 0 C0.811 0.036 1.623 0.072 2.459 0.109 C7.74 0.433 11.698 1.521 16.438 3.875 C13.564 5.312 11.696 4.476 8.562 3.875 C-1.466 2.239 -10.734 3.635 -20.562 5.875 C-14.906 -0.306 -7.826 -0.575 0 0 Z " fill="#067B8B" transform="translate(260.5625,142.125)"/>
<path d="M0 0 C17.856 4.039 17.856 4.039 26 7 C25.67 7.66 25.34 8.32 25 9 C16.059 7.56 7.589 4.792 -1 2 C-0.67 1.34 -0.34 0.68 0 0 Z " fill="#325DA3" transform="translate(139,365)"/>
<path d="M0 0 C5.96 0.422 9.566 2.196 14.438 5.562 C15.074 5.987 15.71 6.412 16.365 6.85 C17.918 7.889 19.46 8.943 21 10 C20.67 10.99 20.34 11.98 20 13 C16.663 11.027 13.331 9.045 10 7.062 C9.046 6.499 8.092 5.935 7.109 5.354 C5.756 4.546 5.756 4.546 4.375 3.723 C3.537 3.225 2.699 2.728 1.836 2.215 C1.23 1.814 0.624 1.413 0 1 C0 0.67 0 0.34 0 0 Z " fill="#25559E" transform="translate(100,337)"/>
<path d="M0 0 C7.091 -0.243 14.193 -0.269 21 2 C21.33 2.66 21.66 3.32 22 4 C14.74 3.01 7.48 2.02 0 1 C0 0.67 0 0.34 0 0 Z M0 1 C-3.104 3.638 -5.815 4.704 -9.75 5.688 C-11.227 6.065 -11.227 6.065 -12.734 6.449 C-13.482 6.631 -14.23 6.813 -15 7 C-14.67 6.34 -14.34 5.68 -14 5 C-13.34 5 -12.68 5 -12 5 C-12 4.34 -12 3.68 -12 3 C-7.88 1.708 -4.332 0.737 0 1 Z M-17 7 C-15 8 -15 8 -15 8 Z " fill="#179483" transform="translate(254,146)"/>
<path d="M0 0 C5.853 0.45 10.082 3.038 15 6 C15 6.66 15 7.32 15 8 C13.742 8.041 12.484 8.083 11.188 8.125 C10.48 8.148 9.772 8.171 9.043 8.195 C7 8 7 8 4 6 C3.67 5.01 3.34 4.02 3 3 C2.01 2.67 1.02 2.34 0 2 C0 1.34 0 0.68 0 0 Z " fill="#0D8588" transform="translate(272,146)"/>
<path d="M0 0 C0.781 0.188 1.562 0.376 2.367 0.57 C3.701 0.907 3.701 0.907 5.062 1.25 C6.138 1.516 7.213 1.781 8.32 2.055 C11.236 2.779 14.15 3.511 17.062 4.25 C17.392 2.93 17.722 1.61 18.062 0.25 C18.062 1.9 18.062 3.55 18.062 5.25 C12.717 6.325 9.071 6.041 3.875 4.438 C2.685 4.08 1.495 3.723 0.27 3.355 C-2.286 2.475 -4.576 1.545 -6.938 0.25 C-3.8 -0.796 -3.06 -0.752 0 0 Z " fill="#4268A9" transform="translate(148.9375,360.75)"/>
<path d="M0 0 C-0.99 0.495 -0.99 0.495 -2 1 C-2 1.99 -2 2.98 -2 4 C-7.94 3.67 -13.88 3.34 -20 3 C-20 2.67 -20 2.34 -20 2 C-18.762 1.876 -17.525 1.752 -16.25 1.625 C-13.755 1.328 -12.204 1.115 -10 -0.125 C-6.657 -1.588 -3.541 -0.59 0 0 Z " fill="#0C6D93" transform="translate(276,140)"/>
<path d="M0 0 C0.75 1.688 0.75 1.688 1 4 C-0.875 6.562 -0.875 6.562 -3 9 C-3.33 9.99 -3.66 10.98 -4 12 C-5.956 13.397 -7.954 14.738 -10 16 C-9.571 11.136 -7.139 8.486 -4 5 C-2.662 3.337 -1.327 1.671 0 0 Z " fill="#168D88" transform="translate(224,163)"/>
<path d="M0 0 C0.66 0.33 1.32 0.66 2 1 C0.625 2.5 0.625 2.5 -1 4 C-1.66 4 -2.32 4 -3 4 C-3.33 4.99 -3.66 5.98 -4 7 C-4.696 7.692 -4.696 7.692 -5.406 8.398 C-7.876 10.88 -9.153 13.937 -10.719 17.039 C-12 19 -12 19 -15 20 C-13.926 17.085 -13.222 15.222 -11 13 C-10.724 12.223 -10.448 11.445 -10.164 10.645 C-8.755 7.443 -7.037 5.931 -4.375 3.688 C-3.558 2.99 -2.74 2.293 -1.898 1.574 C-0.959 0.795 -0.959 0.795 0 0 Z " fill="#1D9982" transform="translate(235,154)"/>
<path d="M0 0 C2.64 0.33 5.28 0.66 8 1 C8 1.66 8 2.32 8 3 C9.671 3.464 9.671 3.464 11.375 3.938 C15 5 15 5 17 6 C16.67 6.66 16.34 7.32 16 8 C9.199 7.099 4.849 5.977 0 1 C0 0.67 0 0.34 0 0 Z " fill="#055E92" transform="translate(274,141)"/>
<path d="M0 0 C4.776 1.642 8.794 4.265 13 7 C12.67 7.66 12.34 8.32 12 9 C8.703 8.342 6.159 7.106 3.25 5.438 C2.451 4.982 1.652 4.527 0.828 4.059 C0.225 3.709 -0.378 3.36 -1 3 C-0.67 2.01 -0.34 1.02 0 0 Z " fill="#27579F" transform="translate(109,332)"/>
<path d="M0 0 C1.311 3.932 0.304 5.155 -1.375 8.875 C-3.045 12.599 -4.359 15.961 -5 20 C-5.33 20 -5.66 20 -6 20 C-6.774 12.333 -6.001 7.779 -1.312 1.582 C-0.879 1.06 -0.446 0.538 0 0 Z " fill="#005B91" transform="translate(218,160)"/>
<path d="M0 0 C-1 3 -1 3 -3.5 4.812 C-6.544 7.476 -6.731 9.053 -7 13 C-8.98 13 -10.96 13 -13 13 C-13 12.67 -13 12.34 -13 12 C-11.35 12 -9.7 12 -8 12 C-8 8.37 -8 4.74 -8 1 C-2.25 -1.125 -2.25 -1.125 0 0 Z " fill="#4165A8" transform="translate(86,306)"/>
<path d="M0 0 C6.787 0.789 13.361 2.413 20 4 C17 6 17 6 14.766 5.828 C13.935 5.637 13.105 5.447 12.25 5.25 C11.371 5.051 10.492 4.853 9.586 4.648 C6.363 3.84 3.179 2.967 0 2 C0 1.34 0 0.68 0 0 Z " fill="#3760A4" transform="translate(150,349)"/>
<path d="M0 0 C0 4.033 -1.609 5.835 -4 9 C-4.66 9 -5.32 9 -6 9 C-7.625 6.5 -7.625 6.5 -9 4 C-6.03 2.68 -3.06 1.36 0 0 Z " fill="#26589F" transform="translate(330,79)"/>
<path d="M0 0 C4.082 0.43 7.735 0.924 11.688 2.062 C14.676 2.908 16.927 3.186 20 3 C20 3.66 20 4.32 20 5 C15.602 6.373 12.075 5.243 7.75 4.062 C7.005 3.867 6.26 3.672 5.492 3.471 C3.659 2.989 1.829 2.496 0 2 C0 1.34 0 0.68 0 0 Z " fill="#355FA4" transform="translate(148,355)"/>
<path d="M0 0 C0.846 0.495 1.691 0.99 2.562 1.5 C1.572 1.995 1.572 1.995 0.562 2.5 C-0.428 2.17 -1.418 1.84 -2.438 1.5 C-4.666 1.431 -6.896 1.415 -9.125 1.438 C-10.304 1.447 -11.484 1.456 -12.699 1.465 C-14.055 1.482 -14.055 1.482 -15.438 1.5 C-11.082 -2.855 -5.335 -2.328 0 0 Z " fill="#24A879" transform="translate(266.4375,149.5)"/>
<path d="M0 0 C7.79 -0.465 14.527 0.843 22 3 C22 3.66 22 4.32 22 5 C20.395 4.69 18.791 4.377 17.188 4.062 C16.294 3.888 15.401 3.714 14.48 3.535 C12 3 12 3 9 2 C7.439 1.933 5.875 1.915 4.312 1.938 C3.504 1.947 2.696 1.956 1.863 1.965 C1.248 1.976 0.634 1.988 0 2 C0 1.34 0 0.68 0 0 Z " fill="#1D9C7F" transform="translate(254,147)"/>
<path d="M0 0 C2.64 0 5.28 0 8 0 C8 1.32 8 2.64 8 4 C5.36 4 2.72 4 0 4 C0 2.68 0 1.36 0 0 Z " fill="#26579F" transform="translate(191,361)"/>
<path d="M0 0 C-4.95 2.97 -4.95 2.97 -10 6 C-10.99 5.34 -11.98 4.68 -13 4 C-12.34 3.34 -11.68 2.68 -11 2 C-11 1.67 -11 1.34 -11 1 C-4.5 -1.125 -4.5 -1.125 0 0 Z " fill="#1D689A" transform="translate(249,140)"/>
<path d="M0 0 C0.66 0 1.32 0 2 0 C2.33 4.29 2.66 8.58 3 13 C2.01 12.34 1.02 11.68 0 11 C-0.293 8.398 -0.293 8.398 -0.188 5.375 C-0.16 4.372 -0.133 3.369 -0.105 2.336 C-0.071 1.565 -0.036 0.794 0 0 Z " fill="#1C9585" transform="translate(294,161)"/>
<path d="M0 0 C0.99 0.33 1.98 0.66 3 1 C2.252 1.543 1.505 2.085 0.734 2.645 C-0.25 3.36 -1.235 4.075 -2.25 4.812 C-3.225 5.52 -4.199 6.228 -5.203 6.957 C-7.482 8.622 -9.748 10.3 -12 12 C-10.564 8.612 -8.795 6.681 -6 4.312 C-5.299 3.711 -4.597 3.109 -3.875 2.488 C-2 1 -2 1 0 0 Z " fill="#128D86" transform="translate(237,151)"/>
<path d="M0 0 C0.33 0.99 0.66 1.98 1 3 C-0.32 4.32 -1.64 5.64 -3 7 C-2.25 2.25 -2.25 2.25 0 0 Z M-4 7 C-3.34 7.66 -2.68 8.32 -2 9 C-2.99 10.98 -3.98 12.96 -5 15 C-5.931 12.394 -6.149 11.358 -5.062 8.75 C-4.712 8.173 -4.361 7.595 -4 7 Z " fill="#016E8F" transform="translate(219,164)"/>
<path d="M0 0 C0.99 0.66 1.98 1.32 3 2 C1 3 -1 4 -3 5 C-4.083 5.619 -4.083 5.619 -5.188 6.25 C-7 7 -7 7 -10 6 C-8.899 5.183 -7.794 4.371 -6.688 3.562 C-6.073 3.11 -5.458 2.658 -4.824 2.191 C-3 1 -3 1 0 0 Z " fill="#016F8E" transform="translate(243,143)"/>
<path d="M0 0 C3.375 1.186 5.647 2.276 8 5 C7.34 5.66 6.68 6.32 6 7 C3.69 5.68 1.38 4.36 -1 3 C-0.67 2.01 -0.34 1.02 0 0 Z " fill="#315DA3" transform="translate(110,349)"/>
<path d="M0 0 C3.107 0.336 4.604 0.59 6.812 2.875 C8 5 8 5 8 8 C7.34 8 6.68 8 6 8 C4.646 6.35 3.313 4.683 2 3 C1.34 2.67 0.68 2.34 0 2 C0 1.34 0 0.68 0 0 Z " fill="#05798C" transform="translate(287,153)"/>
<path d="M0 0 C5.288 0.415 8.117 1.352 12 5 C9.443 5.956 8.397 6.178 5.859 5.039 C5.163 4.572 4.467 4.106 3.75 3.625 C3.044 3.164 2.337 2.702 1.609 2.227 C1.078 1.822 0.547 1.417 0 1 C0 0.67 0 0.34 0 0 Z " fill="#2B59A0" transform="translate(100,337)"/>
<path d="M0 0 C5.445 0.99 5.445 0.99 11 2 C11 2.66 11 3.32 11 4 C9.742 4.041 8.484 4.083 7.188 4.125 C6.48 4.148 5.772 4.171 5.043 4.195 C3 4 3 4 0 2 C0 1.34 0 0.68 0 0 Z " fill="#159084" transform="translate(276,150)"/>
<path d="M0 0 C4.75 1.875 4.75 1.875 7 3 C7 3.99 7 4.98 7 6 C3.625 4.814 1.353 3.724 -1 1 C-0.67 0.67 -0.34 0.34 0 0 Z " fill="#24559D" transform="translate(98,342)"/>
<path d="M0 0 C0.66 0.33 1.32 0.66 2 1 C0.68 2.32 -0.64 3.64 -2 5 C-2.66 4.67 -3.32 4.34 -4 4 C-2.68 2.68 -1.36 1.36 0 0 Z M-7 7 C-6.67 7.66 -6.34 8.32 -6 9 C-6.99 10.485 -6.99 10.485 -8 12 C-8.66 12 -9.32 12 -10 12 C-8.125 8.125 -8.125 8.125 -7 7 Z " fill="#28AB78" transform="translate(234,159)"/>
<path d="M0 0 C1.65 0 3.3 0 5 0 C5.33 1.32 5.66 2.64 6 4 C4.02 4 2.04 4 0 4 C0 2.68 0 1.36 0 0 Z " fill="#064695" transform="translate(204,367)"/>
<path d="M0 0 C1.201 0.313 1.201 0.313 2.426 0.633 C3.234 0.836 4.042 1.04 4.875 1.25 C5.49 1.418 6.105 1.585 6.738 1.758 C6.408 2.418 6.078 3.078 5.738 3.758 C2.108 3.098 -1.522 2.438 -5.262 1.758 C-2.262 -0.242 -2.262 -0.242 0 0 Z " fill="#355FA4" transform="translate(147.26171875,360.2421875)"/>
<path d="M0 0 C0.33 1.32 0.66 2.64 1 4 C-0.65 5.32 -2.3 6.64 -4 8 C-3.502 4.312 -2.899 2.395 0 0 Z " fill="#1A8191" transform="translate(218,171)"/>
<path d="M0 0 C0.99 0.33 1.98 0.66 3 1 C4.188 4.062 4.188 4.062 5 7 C3.062 6.312 3.062 6.312 1 5 C0.25 2.375 0.25 2.375 0 0 Z " fill="#10808C" transform="translate(300,172)"/>
<path d="M0 0 C1.16 3.479 0.775 4.342 -0.438 7.688 C-0.725 8.496 -1.012 9.304 -1.309 10.137 C-1.651 11.059 -1.651 11.059 -2 12 C-2.33 12 -2.66 12 -3 12 C-3.295 6.977 -2.985 4.105 0 0 Z " fill="#016291" transform="translate(215,168)"/>
<path d="M0 0 C0.66 0.33 1.32 0.66 2 1 C-0.31 2.65 -2.62 4.3 -5 6 C-5.66 5.67 -6.32 5.34 -7 5 C-4.637 2.474 -3.335 1.112 0 0 Z " fill="#0B818A" transform="translate(239,148)"/>
</svg>